<?xml version="1.0" encoding="UTF-8" standalone="no"?>
<svg xmlns:rdf="http://www.w3.org/1999/02/22-rdf-syntax-ns#" xmlns="http://www.w3.org/2000/svg" height="30.652pt" width="115.21pt" version="1.1" xmlns:cc="http://creativecommons.org/ns#" xmlns:dc="http://purl.org/dc/elements/1.1/" viewBox="0 0 115.21148 30.65233">
 <path d="m9.4585 0.42105c-0.36133 0-0.39883 0.14141-0.4125 0.5125-0.05468 1.6504 0.08008 4.091-0.09375 4.6203-0.10352 0.31836-0.38125 0.51992-0.37344 0.71328 0.0098 0.31055 0.24648 0.78086 0.33828 0.77891 1.1133-0.01172 1.1801-0.03086 2.6977 0.30312 0.21875 0.04883 0.31797-0.59375 0.23594-0.69141-0.30078-0.36328-1.2484-0.62266-1.8109-0.99766-0.20117-0.13281-0.16406-0.79726-0.16406-1.2016 0-1.1523-0.06172-2.3555-0.04219-3.5273 0.0039-0.28125-0.04297-0.51016-0.375-0.51016zm10.406 6.2992-0.24844 2.1773h0.71094l0.06641-0.44531c0.03125-0.33008 0.16406-0.51133 0.46094-0.74375 0.5293-0.36133 1.7832-0.37891 2.7227-0.37891l-0.01719 8.8945c0 0.41211-0.01601 0.69102-0.14687 1.0719-0.05078 0.16406-0.1332 0.3125-0.24844 0.46094h2.9375l0.19766-0.56016h-0.33047c-0.38086 0-0.69258-0.0668-0.94062-0.34609-0.13086-0.16602-0.16406-0.47773-0.16406-0.80781v-8.7133c0.92383 0.0332 2.3102-0.0332 2.6734 0.36328 0.29492 0.33008 0.34609 0.64219 0.27969 1.0719l-0.06719 0.33047h0.72656l0.4125-2.375h-9.025zm27.62 0-0.13282 0.56016h0.28126c0.3457 0 0.64296 0.16445 0.7914 0.42812 0.31445 0.57812-0.14883 2.7227-0.13125 4.4883 0.0156 2.2949-0.0996 4.9004 2.0781 5.5273 1.8984 0.54492 3.5492-0.09766 5.2641-0.98828l0.018 0.98828h2.507l0.16406-0.54297h-0.19688c-0.31445 0-0.52929-0.05039-0.79296-0.23203-0.459-0.33-0.443-0.809-0.443-1.369v-6.9789c0-0.47852-0.0488-0.75898 0.0664-1.2219 0.0664-0.26367 0.11485-0.4125 0.24766-0.65859h-2.7555l-0.13282 0.56016h0.16563c0.3125 0 0.54336 0.03359 0.79141 0.24844 0.33008 0.26367 0.32968 0.62656 0.32968 1.0719v7.475c-1.2051 0.79102-2.4898 1.2027-4.0406 0.775-1.7832-0.51172-1.932-2.3594-1.9477-4.4062-0.0176-1.8652 0.27969-4.4375 0.42813-5.1641 0.0508-0.21484 0.0664-0.34727 0.19922-0.56016h-2.7562zm-40.914 0.236c-0.05035-0.0044-0.10181-0.000342-0.15234 0.01406-0.28906 0.11328-2.0566 1.2871-3 2.8828-0.74805 1.2695-1.0199 2.6363-1.557 3.9781-0.13477 0.33789-0.32774 0.42031-0.86484 0.47891-0.33398 0.03515-0.4707 1.2168-0.25 1.3633 0.04297 0.02929 0.13086 0.05625 0.16406 0.06406 0.48633 0.10547 0.66211 0.69727 0.67188 1.2812 0 0 0.11719 10.008-0.16797 11.069-0.20312 0.75-0.39453 0.65234-0.58203 0.73438-0.01758 0.0078-0.09375 0.03516-0.125 0.11719-0.07813 0.20898-0.16992 0.71484-0.10547 0.97656 0.02344 0.09766 0.05859 0.15391 0.1875 0.15391 6.5918 0 14.418 0.0039 17.178 0.0039 0.14453 0 0.21016-0.0293 0.26094-0.24219 0.07617-0.25977 0.13516-0.63086 0.10781-0.83984-0.04492-0.19727-0.23828-0.19688-0.375-0.19688-0.89844 0-2.2637 0.04883-2.5234-0.11719-0.17773-0.11328-0.1582-0.37266-0.17188-0.86875-0.08984-3.3438 0.0332-6.6801-0.02344-10.026 0-0.28906-0.09531-0.75391-0.49766-0.75391-0.51953 0-1.5023-0.04101-1.6 0.03516-0.07617 0.03906-0.13281 0.08555-0.17188 0.17344-0.14453 0.31055-0.23828 1.0688-0.20312 1.4125 0.01172 0.11719 0.08633 0.2418 0.26016 0.27891 0.49023 0.10937 0.73594 0.38476 0.75156 1.1211 0.03907 2.5234 0.07422 7.4633-0.25781 8.2836-0.16406 0.41016-0.92539 0.68125-1.1266 0.25156-0.15234-0.32227-0.12891-7.7398-0.12891-10.798 0-0.5332-0.17383-0.76172-0.76562-0.76172-0.74414 0-1.4242-0.0098-2.182 0-0.05664 0-0.18359 0.03711-0.24609 0.19141-0.16992 0.41797-0.25938 1.4078-0.17344 1.5562 0.02929 0.04883 0.06211 0.13125 0.25547 0.15078 0.99024 0.10742 1.4516 0.56836 1.475 1.5898 0.03711 1.5723 0.26367 7.4668-0.42188 8.0938-0.2793 0.25391-1.3305 0.21055-1.5727 0.12656-0.17383-0.05859-0.27539-0.19726-0.29297-0.36719-0.1875-1.793 0.09766-10.598-0.10547-11.055-0.07617-0.17188-0.15859-0.2043-0.32266-0.25312-0.2793-0.08203-1.5953 0.01484-1.8375-0.08281-0.05273-0.01953-0.1582-0.04062-0.16797-0.15781-0.02344-0.32227 0.0059-0.66406 0.125-0.91797 0.05859-0.12695 0.24648-0.13516 0.32266-0.13516 3.8672-0.0039 9.3844 0.02969 11.474-0.03281 0.11719-0.0039 0.34219-0.03359 0.40859-0.22891 0.08398-0.24609 0.16992-0.85312 0.11719-1.0211-0.03125-0.10156-0.07305-0.13867-0.20781-0.17187-0.23047-0.0293-8.6754-0.01758-13.002-0.07422-0.23047 0-0.63672 0.02695-0.69141-0.17422-0.05859-0.21094-0.04687-0.63672 0.05859-0.84375 0.42188-0.84766 0.80703-0.65391 1.0766-1.8844 0.16211-0.74219-0.09609-1.3457 0.26719-1.9414 0.48828-0.79492 0.85586-1.0531 1.1938-1.6352 0.18457-0.31958-0.13036-0.77018-0.48281-0.80078zm89.324 2.8266c-1.6484 0.01563-3.1352 0.79102-2.9867 2.1289 0.0996 0.93945 0.87539 1.4023 1.7836 1.7969l0.8086 0.36328c0.90625 0.41406 1.6484 0.775 1.6328 1.5836-0.0332 0.875-0.85741 1.477-1.9297 1.4867-1.5176 0.01172-2.0039-0.47422-2.0039-0.47422-0.0234-0.02539-2.8812-3.1391-2.8812-3.1391 1.0898-0.21484 1.9144-0.95703 1.8656-1.9648-0.0332-1.2363-1.4355-1.682-2.6406-1.6664l-3.2164 0.01563-0.21562 0.5125h0.29687c0.21485 0 0.34649 0.03281 0.46172 0.18125 0.18164 0.18164 0.21406 0.67774 0.21406 1.1875v4.918c0 0.37891-0.0992 0.67578-0.32969 0.97266h2.2774l0.19765-0.54297h-0.33046c-0.46094 0-0.59375-0.24844-0.59375-0.62734l-0.0156-5.9742c1.2363-0.21289 2.557 0.16563 2.557 1.2711 0 0.875-0.89101 1.4516-2.2758 1.518l3.7774 4.3398s2.0996 0.15234 2.7226 0.16406c1.7812 0.03321 3.3012-1.0059 3.2836-2.5234 0-1.123-0.99062-1.6324-2.0453-2.0953l-0.792-0.347c-0.79101-0.34766-1.502-0.72617-1.4023-1.4352 0.19726-1.3203 3.0684-1.4867 2.8047 0.19688h0.72656l0.36328-1.5508c-0.627-0.182-1.32-0.2972-2.113-0.2972zm6.3609 0.15625-0.16563 1.6664h0.66016l0.0664-0.37969c0.0156-0.21484 0.0977-0.3125 0.3125-0.46094 0.34766-0.23242 1.2227-0.24766 1.9141-0.24766v6.0727c0 0.2793-0.0156 0.46055-0.0977 0.70859-0.0508 0.09961-0.0992 0.31211-0.23203 0.41172h2.4586l0.19765-0.52656h-0.36172c-0.28125 0-0.47851-0.04961-0.64453-0.23125-0.082-0.08399-0.0977-0.28047-0.0977-0.49531v-5.9398c0.36134 0 1.6152-0.01758 1.8633 0.21484 0.33008 0.3125 0.80704 1.0062 0.80704 1.0062 0.16406 0.27539 0.34922 0.57383 0.525 0.85703 0.47851 0.74219 0.79258 1.2871 1.0406 1.8984v1.9789c0 0.28125 0.016 0.57773-0.0836 0.82578-0.0489 0.14844-0.18125 0.28086-0.27891 0.41172h2.4742l0.21484-0.54453h-0.36328c-0.28125 0-0.4957-0.04922-0.64218-0.21328-0.084-0.09961-0.1-0.28047-0.1-0.51094 0 0-0.0336-1.848-0.018-2.0805 0.0996-0.23047 0.23281-0.44492 0.39687-0.69297 0.16602-0.24609 0.36328-0.56055 0.59375-0.90625 0.34571-0.54492 0.62735-0.9418 0.90859-1.3695 0.29688-0.41406 0.59376-0.8418 1.1875-1.4531h-2.2273l-0.24766 0.54453h0.36329c0.26367 0 0.33047 0.0668 0.34609 0.18203 0.0156 0.13281-0.00039 0.44492-0.27969 0.84141l-1.3711 1.9969-2.0117-3.5648h-7.1078zm-62.508 0.0078c-1.3943 0.002-2.7555 0.0055-2.7555 0.0055l-0.19688 0.5125h0.27891c0.26367 0 0.39609 0.08398 0.52891 0.29688 0.11523 0.21484 0.11562 0.84102 0.11562 1.0891v4.4711c0 0.33008 0.01563 0.59414-0.06641 0.90859-0.04883 0.18164-0.16406 0.34531-0.28125 0.49375l5.5117-0.01563 0.19688-1.8477h-0.79062c-0.06641 0.41211-0.18164 0.60977-0.42969 0.85781-0.37891 0.39648-0.85742 0.39609-1.4688 0.39609-0.57617 0-1.1211-0.05078-1.2695-0.21484-0.08203-0.09961-0.18203-0.41211-0.18203-0.67578v-2.2773c0.46094 0 0.76055 0.01602 1.2547-0.01719 0.26367-0.01563 0.49414-0.03359 0.72656-0.04922 0.54297-0.06641 0.93906-0.18203 1.1383-0.70938h-3.1195v-2.607c0.33008-0.06641 0.56094-0.08203 0.92422-0.08203 0.69336 0 1.4184 0.04922 1.6508 0.27969 0.23046 0.23242 0.29648 0.47812 0.26328 0.89219h0.69297l0.23125-1.7016c-0.13183-0.0078-1.5596-0.0074-2.9539-0.0055zm42.504 0c-1.3943 0.002-2.7555 0.0055-2.7555 0.0055l-0.19921 0.5125h0.28124c0.26368 0 0.39649 0.08398 0.52735 0.29688 0.11719 0.21484 0.11719 0.84102 0.11719 1.0891v4.4711c0 0.33008 0.0156 0.59414-0.0664 0.90859-0.0508 0.18164-0.16601 0.34531-0.28125 0.49375l5.5117-0.01563 0.19687-1.8477h-0.79219c-0.0644 0.41211-0.18008 0.60977-0.42812 0.85781-0.38086 0.39648-0.85742 0.39609-1.4688 0.39609-0.57813 0-1.1207-0.05078-1.2711-0.21484-0.082-0.09961-0.18047-0.41211-0.18047-0.67578v-2.2773c0.46094 0 0.75859 0.01602 1.2547-0.01719 0.26366-0.01563 0.49375-0.03359 0.72422-0.04922 0.54492-0.06641 0.94179-0.18203 1.1391-0.70938h-3.118v-2.607c0.33008-0.06641 0.56094-0.08203 0.92422-0.08203 0.6914 0 1.4176 0.04922 1.65 0.27969 0.23047 0.23242 0.29531 0.47812 0.26406 0.89219h0.69297l0.23047-1.7016c-0.13184-0.0078-1.5588-0.0074-2.9531-0.0055zm-23.545 0.0055-0.21484 0.5125h0.29687c0.23047 0 0.39453 0.03281 0.51172 0.16562 0.19726 0.21484 0.19766 0.70898 0.19766 0.95703l-0.018 4.4883c-0.0156 0.46094-0.00001 0.67578-0.16407 1.1211-0.0664 0.18164-0.19726 0.37891-0.36328 0.52734h2.1774l0.18203-0.52734-0.3125-0.01563c-0.19922 0-0.39687-0.06602-0.56094-0.24766-0.084-0.09961-0.15-0.67617-0.15-1.1391v-4.3219l4.2578 4.9641c0.16406 0.18164 0.29687 0.39688 0.44531 0.62734 0.16601 0.26562 0.26367 0.33008 0.29687 0.66016h0.95703l0.018-6.0219c0-0.26367 0.0305-0.94102 0.0969-1.1539 0.0332-0.11719 0.15039-0.38125 0.26562-0.5961h-1.9805l-0.18125 0.5125h0.27969c0.23242 0 0.3957 0.05039 0.51094 0.18125 0.18162 0.19922 0.19922 0.62656 0.19922 1.0719v3.8797l-3.8766-4.5727c-0.327-0.411-0.572-0.675-0.688-1.0717h-2.1781zm9.1227 0-0.18125 0.5125h0.26328c0.19922 0 0.33047 0.0832 0.46328 0.21406 0.13282 0.14844 0.13281 0.33008 0.13281 0.57812v5.3461c0 0.28125-0.018 0.46094-0.11562 0.72656-0.0508 0.13086-0.16563 0.26367-0.24766 0.39453h2.4258l0.2125-0.54297h-0.3625c-0.2793 0-0.42812-0.0332-0.59219-0.19922-0.0664-0.09766-0.11718-0.29688-0.11718-0.51172v-5.0977c0-0.41211 0.00039-0.80859 0.1-1.0234 0.0664-0.13086 0.0996-0.26406 0.23046-0.39688h-2.2117zm5.0156 0-1.9625 0.01797-0.14843 0.49453h0.28124c0.2461 0 0.42774 0.16523 0.59376 0.34688 0.23046 0.26367 1.0215 1.7656 1.5 2.9688 0.61132 1.502 1.2715 3.2836 1.3867 3.9945h1.0055c0.0332-0.9082 0.64453-2.4586 1.2383-3.7789 0.36329-0.80859 0.61172-1.4359 0.9086-2.0453 0.29687-0.61133 0.60976-1.1719 1.2367-1.9805h-2.393l-0.13125 0.49375h0.3125c0.23242 0 0.39687 0.1332 0.4789 0.31484 0.0664 0.14844-0.00039 0.44492-0.13125 0.775l-1.7828 4.2734-2.393-5.875zm26.285 0-0.17891 0.5125h0.26328c0.19727 0 0.33008 0.0832 0.46094 0.21406 0.13281 0.14844 0.13281 0.33008 0.13281 0.57812v5.3461c0 0.28125-0.018 0.46094-0.11562 0.72656-0.0508 0.13086-0.16563 0.26367-0.24766 0.39453h2.4258l0.21485-0.54297h-0.36328c-0.28126 0-0.4297-0.0332-0.59376-0.19922-0.0664-0.09766-0.11484-0.29688-0.11484-0.51172v-5.0977c0-0.41211-0.00039-0.80859 0.0992-1.0234 0.0644-0.13086 0.0977-0.26406 0.23047-0.39688h-2.2133zm-70.57 0.000781-0.21484 0.52891h0.28125c0.24805 0 0.39648 0.000391 0.52734 0.13125 0.18164 0.21484 0.13281 0.65977 0.13281 0.92344v4.7031c0 0.19726-0.000389 0.3457-0.01797 0.49609-0.03125 0.37891-0.11523 0.6582-0.29688 0.98828h2.3102l0.18203-0.54297h-0.31484c-0.49414 0-0.65781-0.19922-0.65781-0.64453v-2.6227c0.64258 0.01563 1.0055 0.01524 1.6812-0.03359 0.38086-0.01563 0.79336-0.03281 1.1391-0.04844 0.39648-0.0332 0.77539-0.06641 1.1055-0.29688v3.25c0 0.39648-0.03359 0.54453-0.19766 0.92344h2.1938l0.21484-0.52734h-0.33047c-0.51172 0-0.675-0.19883-0.675-0.62656v-5.2641c0-0.24805 0.01484-0.79297 0.06563-1.0234 0.01563-0.11524 0.04961-0.11484 0.09844-0.31406h-2.1117l-0.23047 0.52891h0.29688c0.23047 0 0.39648 0.01563 0.51172 0.14844 0.18164 0.21484 0.14844 0.64258 0.14844 0.90625l0.01563 1.6172h-3.9258v-1.8633c0-0.24805 0.01601-0.80859 0.04922-1.0234 0.01563-0.11524 0.04844-0.14805 0.11484-0.31406h-2.0953zm-12.063 7.0609c-0.25586 0.0049-0.4793 0.02207-0.53594 0.03672-0.08594 0.02148-0.13867 0.13281-0.16016 0.1875-0.10742 0.28125-0.22031 1.068-0.16172 1.4117 0.0293 0.16602 0.15625 0.19961 0.25391 0.26797 0.07031 0.05078 0.32969 0.11523 0.37266 1.1094 0.04883 1.0938 0.02578 3.9055 0.04141 4.9953 0.0059 0.47266 0.02891 0.85039 0.07578 1.0828 0.06836 0.31641 0.18359 0.3457 0.28906 0.33594 0.37109-0.0332 0.33594-0.19609 0.57812-1.1297 0.14453-0.55469 0.08203-3.673 0.05469-6.3156-0.0039-0.32812 0.1957-0.53984 0.21328-0.91875 0.0098-0.17383 0.02539-0.75391-0.08594-0.89844-0.0293-0.03516-0.10156-0.11055-0.20312-0.12813-0.1875-0.03418-0.47617-0.0416-0.73203-0.03672zm26.24 1.7883-0.16406 0.56094h0.19688c0.29688 0 0.51211 0.09961 0.69376 0.29688 0.21484 0.24805 0.21406 0.54492 0.21406 0.875l-0.0156 7.7531c0 0.41406-0.0176 0.67852-0.14843 1.075-0.0508 0.16406-0.15 0.29688-0.24766 0.44531h2.9352l0.2-0.54531h-0.33048c-0.38085 0-0.69335-0.08203-0.9414-0.36328-0.13086-0.16406-0.16406-0.47852-0.16406-0.79297v-7.375c0-0.60937 0.0328-1.2031 0.18125-1.5508 0.082-0.19726 0.14921-0.24805 0.23125-0.37891h-2.6406zm-37.259 0.128c0.18579-0.0127 0.39141 0.03594 0.50078 0.11406 0.50195 0.35938 0.58203 0.64414 0.63281 1.4508 0.14258 2.3047 0.17969 7.4105-0.29688 7.9594-0.3125 0.35938-0.99453 0.49023-1.143 0.08984-0.23828-0.63476-0.11133-9.1879-0.07813-9.3617 0.03223-0.16602 0.19858-0.23965 0.38438-0.25234zm-2.468 0.56953c0.14429-0.01611 0.30664 0.07129 0.41406 0.32422 0.26172 0.60938 0.36328 8.0859-0.14062 8.6484-0.30859 0.3418-0.60156 0.46602-0.60938 0.05781-0.04492-2.7676-0.0082-8.568 0.02891-8.7359 0.03613-0.15918 0.16274-0.27842 0.30703-0.29453zm25.392 2.4172c-0.31757-0.01098-0.64927 0.0058-0.99375 0.05312-2.6387 0.36328-4.1742 2.1773-3.8617 4.5523 0.29688 2.2617 2.1289 3.7465 4.8359 3.4008 2.6895-0.33008 4.3227-2.2445 4.0258-4.5062-0.25977-1.9773-1.7833-3.4231-4.0063-3.5zm22.886 0c-0.31739-0.01098-0.64952 0.0058-0.99376 0.05312-2.6406 0.36328-4.1754 2.1773-3.8609 4.5523 0.29687 2.2617 2.1293 3.7465 4.8344 3.4008 2.6895-0.33008 4.3219-2.2445 4.025-4.5062-0.25976-1.9773-1.783-3.4231-4.0047-3.5zm16.94 0.05312c0.38086 0.79102-0.2793 2.4082-0.89063 3.7617-0.70898 1.5996-1.1207 2.5414-2.2594 4.0766h2.5078l0.14844-0.54531h-0.3125c-0.23242 0-0.42969-0.11523-0.51172-0.29687-0.0664-0.14844 0.0312-0.49648 0.16406-0.82656l0.49375-1.1695h1.8008c0.37891 0 0.74297-0.08398 0.97344-0.36328l1.1719 3.2016h1.9445l0.1664-0.54531h-0.28125c-0.26367 0-0.42773-0.16602-0.60937-0.34766-0.23242-0.24609-0.9082-1.8145-1.4024-3.0195-0.59374-1.5-1.2207-3.2168-1.3359-3.9258h-1.768zm-35.374 0.06641-0.21562 0.51172h0.28125c0.26367 0 0.44531 0.06406 0.57812 0.26328 0.11524 0.21484 0.09844 0.89102 0.09844 1.1391v4.4703c-0.000001 0.33008 0.01719 0.57812-0.06484 0.89062-0.05078 0.18164-0.16602 0.34844-0.28125 0.49688h2.5234s0.08438-0.26602 0.16641-0.54531c-0.08203 0-0.29766 0.03321-0.37969 0.01563-0.24805 0-0.4625-0.09727-0.54453-0.18125-0.09961-0.09766-0.19922-0.36172-0.19922-0.62734v-2.4414c0.46289 0.0332 0.79336 0.01562 1.2875 0 0.5625-0.01563 1.1051-0.04844 1.4195-0.18125 0.21484-0.08203 0.32969-0.39648 0.39609-0.57813h-3.1031v-2.6062c0.33008-0.0664 0.56055-0.08359 0.92578-0.08359 0.62695 0 1.2359 0.05078 1.4508 0.28125 0.24609 0.23047 0.28125 0.54492 0.28125 0.89062h0.69375l0.24609-1.7148c-0.3125 0.01563-5.5602 0-5.5602 0zm22.291 0-0.16406 0.51172h0.26328c0.24805 0 0.42969 0.14844 0.59375 0.32812 0.23047 0.24805 1.0238 1.766 1.5024 2.9711 0.61133 1.4844 1.2691 3.2832 1.3844 3.9766h1.0414c0.0332-0.89062 0.46094-2.1453 1.0391-3.4812 0.29688-0.67773 0.41172-0.89219 0.57578-1.2047 0.13282 0.2793 0.24844 0.62695 0.33047 0.875 0.5625 1.5508 1.1387 3.1176 1.2539 3.8109h1.0234c0.0332-0.89062 0.47851-2.4418 1.0742-3.7797 0.34571-0.79102 0.60938-1.434 0.90625-2.0297 0.29688-0.60938 0.62696-1.1695 1.2539-1.9781h-2.3922l-0.14922 0.51172h0.28125c0.23047 0 0.41251 0.09766 0.49453 0.29688 0.082 0.14844-0.0668 0.59414-0.19765 0.92422l-1.632 4.0734c-0.51172-1.4844-1.4691-4.1402-2.0961-5.8062h-2.0133l-0.18203 0.51172h0.28125c0.26367 0 0.42774 0.14844 0.60938 0.32812 0.1328 0.15039 0.44531 0.72695 0.72656 1.4867 0.0156 0.0332-1.2051 2.8199-1.5508 3.5797l-2.2617-5.9062h-1.9961zm-27.596 0.45625c1.7524-0.0916 3.1637 1.2869 3.475 2.9422 0.3457 1.748-0.5293 3.5137-2.3945 3.8438-1.8965 0.34766-3.398-1.0719-3.7438-2.8531-0.33008-1.75 0.39375-3.5652 2.3078-3.8953 0.11963-0.01953 0.23864-0.03139 0.35547-0.0375zm22.887 0c1.7524-0.0916 3.164 1.2869 3.4734 2.9422 0.3457 1.748-0.52969 3.5137-2.393 3.8438-1.8984 0.34766-3.3984-1.0719-3.7461-2.8531-0.33007-1.75 0.39688-3.5652 2.3109-3.8953 0.11963-0.01953 0.23786-0.03139 0.35469-0.0375zm18.652 0.87969 1.1055 2.8867c-0.77539 0.05078-1.4859 0.03282-2.2438-0.04922l1.1383-2.8375z"/>
</svg>
